<svg id="Layer_1" data-name="Layer 1" xmlns="http://www.w3.org/2000/svg" viewBox="0 0 16 16"><defs><style>.cls-1{fill:#afd275;}</style></defs><rect class="cls-1" width="0.92" height="10.25"/><rect class="cls-1" x="15.08" width="0.92" height="10.24"/><polygon class="cls-1" points="8.32 5.04 3.11 0.01 1.73 0.01 7.73 5.81 8.32 5.04"/><path class="cls-1" d="M919.93,533.87l0,0Z" transform="translate(-913.43 -524.21)"/><path class="cls-1" d="M928.86,537.69s0-.06,0-.09a1.24,1.24,0,0,0,.57-1c0-.84-1.11-1.52-2.48-1.52H926c-.84,0-1.54.41-1.54.94,0,0,0,.07.12.07H927c.44,0,.82.24.82.5a.22.22,0,0,1,0,.08.52.52,0,0,1-.29.32,1.49,1.49,0,0,1-.64.11h-4.68c-.06,0-.12,0-.12.07v.87s.06.08.12.08h4.79c.44,0,.83.23.83.5v.09a.53.53,0,0,1-.3.31,1.07,1.07,0,0,1-.27.09,3.11,3.11,0,0,1-.43,0h-11.1s0,0,0,0l3.91-4.85h0l0-.06,0,0,0,0h0l.08-.1,0,0,0,0,0,0,0,0h0l0,0v0l0,0h0l0,0,0-.06h0l0,0v0h0l0,0h0l0,0h0l.12-.15c1.79-2.21,5.35-6.64,7.48-9.29h-1.27l-12.88,16H927c1.37,0,2.48-.69,2.48-1.53A1.26,1.26,0,0,0,928.86,537.69Z" transform="translate(-913.43 -524.21)"/></svg>